<svg width="23" height="20" viewBox="0 0 23 20" fill="none" xmlns="http://www.w3.org/2000/svg">
<path fill-rule="evenodd" clip-rule="evenodd" d="M12.2029 0.139738C12.0206 -0.0103189 11.8177 -0.042568 11.6032 0.0577992C11.3894 0.158166 11.3046 0.376671 11.3046 0.613932V4.88135C6.37052 5.05444 3.26339 6.73666 1.55884 9.88687C0.0917853 12.604 -0.208204 15.8227 0.120732 17.9518V18.4441C0.120732 18.7221 0.253622 18.9683 0.526968 19.0413C0.577295 19.0548 0.604926 19.0595 0.654924 19.0595C0.873666 19.0595 1.11971 18.9456 1.22925 18.7495C4.55578 12.8821 7.35732 12.5994 11.3046 12.5859V16.8395C11.3046 17.0765 11.3868 17.2953 11.6055 17.3953C11.8243 17.496 12.048 17.4638 12.2345 17.3137L22.0368 9.18924C22.1782 9.07077 22.2535 8.89768 22.2535 8.71505C22.2535 8.53274 22.1647 8.35504 22.0233 8.23657L12.2029 0.139738Z" fill="#B2B4B7"/>
</svg>
