<svg width="16" height="16" viewBox="0 0 16 16" fill="none" xmlns="http://www.w3.org/2000/svg">
<path fill-rule="evenodd" clip-rule="evenodd" d="M8.85209 0.136064C8.55009 -0.0899395 8.12208 -0.0279384 7.89608 0.274067C7.4214 0.908077 7.1014 1.60276 6.88473 2.2681C6.88273 2.26343 6.87939 2.25743 6.87739 2.25343C6.82406 2.44744 6.75206 2.71477 6.69806 2.95011C6.68406 3.00611 6.67272 3.06078 6.66072 3.11611C6.64472 3.19478 6.63206 3.26612 6.62472 3.32345L6.61606 3.32212C6.57939 3.51545 6.54806 3.70279 6.52472 3.87746C6.48939 3.87613 6.45539 3.87213 6.42139 3.87079C6.65539 3.99546 7.20807 4.1888 7.93141 3.80546C7.92608 3.80613 7.92075 3.80679 7.91541 3.80746C8.04808 2.98945 8.34275 1.95809 8.99076 1.09275C9.21677 0.790075 9.15477 0.362068 8.85209 0.136064Z" fill="#884323"/>
<path fill-rule="evenodd" clip-rule="evenodd" d="M6.66064 3.11627C6.64664 3.18493 6.62864 3.25494 6.61664 3.32227L6.62464 3.3236C6.63197 3.26627 6.6453 3.19494 6.66064 3.11627Z" fill="#E83636"/>
<path fill-rule="evenodd" clip-rule="evenodd" d="M5.43469 0.666652C5.01935 0.450648 4.53268 0.34198 3.988 0.34198C3.52266 0.34198 3.18199 0.424648 3.16799 0.428648C3.07199 0.452648 2.99198 0.515316 2.94665 0.602651C2.90132 0.689986 2.89532 0.791988 2.93132 0.883322C2.94932 0.931323 3.39932 2.06534 4.43134 2.60068C4.84668 2.81602 5.33336 2.92536 5.87737 2.92536C6.34271 2.92536 6.68471 2.84202 6.69871 2.83802C6.70738 2.83602 6.71538 2.83335 6.72338 2.83069C6.71338 2.87202 6.70671 2.91002 6.69805 2.95002C6.75205 2.71469 6.82405 2.44735 6.87738 2.25335C6.72805 1.93401 6.27604 1.10266 5.43469 0.666652Z" fill="#669900"/>
<path fill-rule="evenodd" clip-rule="evenodd" d="M13.6595 2.33959C13.5161 2.33959 13.4001 2.45559 13.4001 2.59826C13.4001 2.74093 13.5161 2.85626 13.6595 2.85626C13.8015 2.85626 13.9181 2.74093 13.9181 2.59826C13.9181 2.45559 13.8015 2.33959 13.6595 2.33959Z" fill="#E83636"/>
<path fill-rule="evenodd" clip-rule="evenodd" d="M15.4459 2.81745C15.5886 2.81745 15.7046 2.70144 15.7046 2.55877C15.7046 2.41611 15.5886 2.30077 15.4459 2.30077C15.3032 2.30077 15.1872 2.41611 15.1872 2.55877C15.1872 2.70144 15.3032 2.81745 15.4459 2.81745Z" fill="#E83636"/>
<mask id="mask0_1607_3348" style="mask-type:alpha" maskUnits="userSpaceOnUse" x="0" y="3" width="14" height="13">
<path fill-rule="evenodd" clip-rule="evenodd" d="M0 3.67352H13.5512V15.0429H0V3.67352Z" fill="white"/>
</mask>
<g mask="url(#mask0_1607_3348)">
<path fill-rule="evenodd" clip-rule="evenodd" d="M13.0435 6.0089C12.3662 6.05356 11.9762 6.16023 11.8168 6.34357C11.6648 6.51957 11.6141 6.88158 11.6601 7.48225C11.6835 7.77892 11.4608 8.03826 11.1648 8.06093C11.1501 8.06226 11.1368 8.06293 11.1228 8.06293C10.8528 8.06293 10.6235 7.86093 10.5888 7.59225C10.5875 7.58292 10.5868 7.57425 10.5861 7.56425C10.5361 6.90758 10.5468 6.16423 11.0015 5.63756C11.3721 5.21088 11.9288 5.05021 12.5195 4.97688C12.4195 4.83821 12.3168 4.70821 12.2095 4.59754C11.9855 4.38887 11.7401 4.21353 11.4701 4.08353C10.8875 3.80353 10.2795 3.67352 9.55878 3.67352C9.10211 3.67352 8.64076 3.72552 8.19609 3.77619C8.10876 3.78619 8.02009 3.79619 7.93142 3.80553C7.20807 4.18886 6.6554 3.99486 6.42073 3.87019C6.05739 3.85353 5.70072 3.81486 5.35538 3.77619C4.91004 3.72552 4.44936 3.67352 3.99335 3.67352C3.27201 3.67352 2.66466 3.80353 2.08199 4.08353C1.10531 4.55287 0.413294 5.56089 0.133289 6.92224C-0.135382 8.22427 0.00462019 9.71029 0.527296 11.1076C1.40664 13.4617 3.18201 15.043 4.94604 15.043C5.37004 15.043 5.77872 14.9504 6.15939 14.767C6.31139 14.6937 6.43073 14.603 6.52673 14.5297C6.66806 14.4217 6.71207 14.3944 6.77607 14.3944C6.83873 14.3944 6.8834 14.4217 7.02474 14.5297C7.12074 14.603 7.24007 14.6937 7.39208 14.767C7.77275 14.9504 8.18142 15.043 8.6061 15.043C10.3695 15.043 12.1448 13.461 13.0248 11.1076C13.5462 9.71029 13.6862 8.22427 13.4182 6.92224C13.3782 6.72491 13.3282 6.5349 13.2708 6.3529C13.2715 6.3529 13.2728 6.35223 13.2742 6.35223C13.2375 6.26823 13.1822 6.14623 13.1115 6.0009C13.0875 6.0029 13.0682 6.00756 13.0435 6.0089Z" fill="#EB4B4B"/>
<path fill-rule="evenodd" clip-rule="evenodd" d="M13.0435 6.0089C12.3662 6.05356 11.9762 6.16023 11.8168 6.34357C11.6648 6.51957 11.6141 6.88158 11.6601 7.48225C11.6835 7.77892 11.4608 8.03826 11.1648 8.06093C11.1501 8.06226 11.1368 8.06293 11.1228 8.06293C10.8528 8.06293 10.6235 7.86093 10.5888 7.59225C10.5875 7.58292 10.5868 7.57425 10.5861 7.56425C10.5361 6.90758 10.5468 6.16423 11.0015 5.63756C11.3721 5.21088 11.9288 5.05021 12.5195 4.97688C12.4195 4.83821 12.3168 4.70821 12.2095 4.59754C11.9855 4.38887 11.7401 4.21353 11.4701 4.08353C10.8875 3.80353 10.2795 3.67352 9.55878 3.67352C9.10211 3.67352 8.64076 3.72552 8.19609 3.77619C8.10876 3.78619 8.02009 3.79619 7.93142 3.80553C7.20807 4.18886 6.6554 3.99486 6.42073 3.87019C6.05739 3.85353 5.70072 3.81486 5.35538 3.77619C4.91004 3.72552 4.44936 3.67352 3.99335 3.67352C3.27201 3.67352 2.66466 3.80353 2.08199 4.08353C1.10531 4.55287 0.413294 5.56089 0.133289 6.92224C-0.135382 8.22427 0.00462019 9.71029 0.527296 11.1076C1.40664 13.4617 3.18201 15.043 4.94604 15.043C5.37004 15.043 5.77872 14.9504 6.15939 14.767C6.31139 14.6937 6.43073 14.603 6.52673 14.5297C6.66806 14.4217 6.71207 14.3944 6.77607 14.3944C6.83873 14.3944 6.8834 14.4217 7.02474 14.5297C7.12074 14.603 7.24007 14.6937 7.39208 14.767C7.77275 14.9504 8.18142 15.043 8.6061 15.043C10.3695 15.043 12.1448 13.461 13.0248 11.1076C13.5462 9.71029 13.6862 8.22427 13.4182 6.92224C13.3782 6.72491 13.3282 6.5349 13.2708 6.3529C13.2715 6.3529 13.2728 6.35223 13.2742 6.35223C13.2375 6.26823 13.1822 6.14623 13.1115 6.0009C13.0875 6.0029 13.0682 6.00756 13.0435 6.0089Z" fill="#9AD069"/>
</g>
<path fill-rule="evenodd" clip-rule="evenodd" d="M15.4459 2.30047C15.5886 2.30047 15.7046 2.4158 15.7046 2.55847C15.7046 2.70181 15.5886 2.81714 15.4459 2.81714C15.3032 2.81714 15.1872 2.70181 15.1872 2.55847C15.1872 2.4158 15.3032 2.30047 15.4459 2.30047ZM13.6592 2.85648C13.5159 2.85648 13.4005 2.74114 13.4005 2.59781C13.4005 2.45514 13.5159 2.3398 13.6592 2.3398C13.8012 2.3398 13.9179 2.45514 13.9179 2.59781C13.9179 2.74114 13.8012 2.85648 13.6592 2.85648ZM15.0052 5.37519C15.4019 4.85318 15.5832 4.18383 15.5319 3.49382C15.7912 3.40649 15.9792 3.16448 15.9792 2.87648C15.9792 2.51514 15.6852 2.2218 15.3246 2.2218C15.1472 2.2218 14.9866 2.29314 14.8679 2.40847C14.7812 2.3798 14.6885 2.36247 14.5939 2.36247C14.5305 2.36247 14.4679 2.36914 14.4059 2.38247C14.3672 2.39047 14.3305 2.40447 14.2932 2.41781C14.1752 2.29714 14.0105 2.2218 13.8272 2.2218C13.4659 2.2218 13.1732 2.51514 13.1732 2.87648C13.1732 3.19982 13.4085 3.46649 13.7172 3.51982C13.7619 3.80716 13.7092 4.09517 13.5659 4.2845C13.4339 4.45784 13.2325 4.55117 12.9499 4.56984C12.7205 4.58517 12.4892 4.60651 12.2652 4.64384C12.2478 4.62651 12.2272 4.61384 12.2098 4.59717C12.3172 4.70851 12.4198 4.83785 12.5192 4.97718C12.6692 4.95851 12.8212 4.94385 12.9732 4.93385C13.3625 4.90851 13.6592 4.76318 13.8565 4.50451C14.0572 4.23917 14.1325 3.8625 14.0772 3.48116C14.3145 3.38249 14.4819 3.14915 14.4819 2.87648C14.4819 2.83048 14.4772 2.78648 14.4685 2.74381C14.4732 2.74314 14.4765 2.73981 14.4812 2.73914C14.5185 2.73114 14.5565 2.72714 14.5939 2.72714C14.6252 2.72714 14.6545 2.73381 14.6845 2.73914C14.6759 2.78381 14.6699 2.82915 14.6699 2.87648C14.6699 3.18382 14.8826 3.43982 15.1686 3.50982C15.2159 4.11583 15.0592 4.70118 14.7152 5.15518C14.4519 5.50319 13.9592 5.92453 13.1112 6.00053C13.1819 6.14653 13.2372 6.26854 13.2739 6.35254C14.1765 6.23454 14.7105 5.76386 15.0052 5.37519Z" fill="#669900"/>
<path fill-rule="evenodd" clip-rule="evenodd" d="M15.5436 3.48021L15.5223 3.20954L15.2583 3.14487C15.1336 3.11354 15.0463 3.00354 15.0463 2.8762C15.0463 2.8582 15.0489 2.83887 15.0529 2.81887L15.1176 2.43686L14.7363 2.36619C14.6276 2.34619 14.5096 2.34819 14.4109 2.36953L14.0262 2.46019L14.0996 2.81953C14.1036 2.83887 14.1062 2.85753 14.1062 2.8762C14.1062 2.98887 14.0376 3.0902 13.9336 3.13287L13.6636 3.24487L13.7049 3.53488C13.7469 3.82155 13.6916 4.09889 13.5569 4.27689C13.4269 4.44756 13.2276 4.53956 12.9482 4.55823C12.1175 4.6129 11.2735 4.75157 10.7175 5.39158C10.1708 6.02225 10.1548 6.85827 10.2109 7.59361L10.2162 7.64028C10.2742 8.09495 10.6642 8.43829 11.1229 8.43829C11.1462 8.43829 11.1689 8.43763 11.1935 8.43629C11.6962 8.39763 12.0742 7.95629 12.0355 7.45361C11.9815 6.7496 12.0882 6.60493 12.1015 6.59026C12.1135 6.57493 12.2556 6.43826 13.0709 6.38426C13.0929 6.38293 13.1142 6.38026 13.1449 6.37559C14.0376 6.29493 14.5843 5.87625 14.8856 5.53958C14.9329 5.48624 14.9756 5.43424 15.0149 5.38291C15.4116 4.85957 15.5989 4.18422 15.5436 3.48021Z" fill="#669900"/>
<path fill-rule="evenodd" clip-rule="evenodd" d="M14.5071 2.88223C14.5071 3.25224 14.2071 3.55224 13.8371 3.55224C13.4671 3.55224 13.1671 3.25224 13.1671 2.88223C13.1671 2.51222 13.4671 2.21222 13.8371 2.21222C14.2071 2.21222 14.5071 2.51222 14.5071 2.88223Z" fill="#4A200C"/>
<path fill-rule="evenodd" clip-rule="evenodd" d="M16.0001 2.88223C16.0001 3.25224 15.7007 3.55224 15.33 3.55224C14.96 3.55224 14.66 3.25224 14.66 2.88223C14.66 2.51222 14.96 2.21222 15.33 2.21222C15.7007 2.21222 16.0001 2.51222 16.0001 2.88223Z" fill="#4A200C"/>
<path fill-rule="evenodd" clip-rule="evenodd" d="M13.9179 2.59805C13.9179 2.45538 13.8013 2.33938 13.6593 2.33938C13.5159 2.33938 13.4006 2.45538 13.4006 2.59805C13.4006 2.74072 13.5159 2.85672 13.6593 2.85672C13.8013 2.85672 13.9179 2.74072 13.9179 2.59805Z" fill="white"/>
<path fill-rule="evenodd" clip-rule="evenodd" d="M15.4459 2.30053C15.3032 2.30053 15.1872 2.41586 15.1872 2.55853C15.1872 2.70187 15.3032 2.8172 15.4459 2.8172C15.5886 2.8172 15.7046 2.70187 15.7046 2.55853C15.7046 2.41586 15.5886 2.30053 15.4459 2.30053Z" fill="white"/>
</svg>
