<svg width="36" height="36" viewBox="0 0 36 36" fill="none" xmlns="http://www.w3.org/2000/svg">
<mask id="mask0_1607_3271" style="mask-type:alpha" maskUnits="userSpaceOnUse" x="0" y="0" width="37" height="36">
<path fill-rule="evenodd" clip-rule="evenodd" d="M0 0H36.0003V36H0V0Z" fill="white"/>
</mask>
<g mask="url(#mask0_1607_3271)">
<path fill-rule="evenodd" clip-rule="evenodd" d="M35.7409 13.9097C34.7344 5.97607 27.8298 0 19.6532 0H16.3457C8.1721 0 1.26602 5.97607 0.259503 13.9097C0.0855011 14.8442 0 15.8012 0 16.7522V19.9923C0 28.8184 7.33359 36.0005 16.3457 36.0005H19.6532C28.6669 36.0005 36.0005 28.8184 36.0005 19.9923V16.7522C36.0005 15.8012 35.9134 14.8442 35.7409 13.9097Z" fill="#5CD5BB"/>
</g>
<path fill-rule="evenodd" clip-rule="evenodd" d="M27.1994 9.02863H8.56016C8.03215 9.02863 7.60315 9.45763 7.60315 9.98714V25.3548C7.60315 25.8828 8.03215 26.3103 8.56016 26.3103H27.4394C27.9689 26.3103 28.3979 25.8828 28.3979 25.3548V10.2286C28.3694 9.55963 27.8399 9.02863 27.1994 9.02863Z" fill="white"/>
<path fill-rule="evenodd" clip-rule="evenodd" d="M28.383 13.6284V9.98637C28.383 9.45836 27.9555 9.02936 27.4244 9.02936H8.57521C8.0442 9.02936 7.6167 9.45836 7.6167 9.98637V13.6284H28.383Z" fill="#0EA84C"/>
<path fill-rule="evenodd" clip-rule="evenodd" d="M12.2929 11.3431C11.8744 11.3431 11.5399 11.0071 11.5399 10.5901V7.44008C11.5399 7.02158 11.8744 6.68707 12.2929 6.68707C12.7099 6.68707 13.0459 7.02158 13.0459 7.44008V10.5901C13.0459 11.0071 12.7099 11.3431 12.2929 11.3431Z" fill="white"/>
<path fill-rule="evenodd" clip-rule="evenodd" d="M23.7218 11.3431C23.3033 11.3431 22.9688 11.0071 22.9688 10.5901V7.44008C22.9688 7.02158 23.3033 6.68707 23.7218 6.68707C24.1388 6.68707 24.4748 7.02158 24.4748 7.44008V10.5901C24.4748 11.0071 24.1118 11.3431 23.7218 11.3431Z" fill="white"/>
<path fill-rule="evenodd" clip-rule="evenodd" d="M26.8696 14.5777C26.7991 14.4772 26.7046 14.4022 26.5846 14.3557C26.5081 14.3227 26.4286 14.3062 26.3446 14.3062H23.4946H20.6446C20.5606 14.3062 20.4796 14.3227 20.4031 14.3557C20.2846 14.4022 20.1901 14.4772 20.1181 14.5777C20.0476 14.6797 20.0131 14.7922 20.0131 14.9167V21.9277C20.0131 22.0507 20.0476 22.1648 20.1181 22.2653C20.1901 22.3658 20.2846 22.4408 20.4031 22.4873C20.4796 22.5203 20.5606 22.5383 20.6446 22.5383C20.8141 22.5383 20.9641 22.4783 21.0946 22.3583L23.4946 20.0497L25.8946 22.3583C26.0206 22.4738 26.1706 22.5323 26.3446 22.5323C26.4361 22.5323 26.5156 22.5173 26.5846 22.4873C26.7046 22.4408 26.7991 22.3658 26.8696 22.2653C26.9416 22.1648 26.9761 22.0507 26.9761 21.9277V14.9167C26.9761 14.7922 26.9416 14.6797 26.8696 14.5777Z" fill="#4A90E2"/>
</svg>
