<svg width="36" height="36" viewBox="0 0 36 36" fill="none" xmlns="http://www.w3.org/2000/svg">
<mask id="mask0_1607_3251" style="mask-type:alpha" maskUnits="userSpaceOnUse" x="0" y="0" width="36" height="36">
<path fill-rule="evenodd" clip-rule="evenodd" d="M0.000732422 0.00134277H36V36H0.000732422V0.00134277Z" fill="white"/>
</mask>
<g mask="url(#mask0_1607_3251)">
<path fill-rule="evenodd" clip-rule="evenodd" d="M35.7412 13.9093C34.7347 5.97584 27.8287 0.00134277 19.6537 0.00134277H16.3462C8.17123 0.00134277 1.26523 5.97584 0.258732 13.9093C0.0862324 14.8453 0.000732422 15.8008 0.000732422 16.7533V19.9918C0.000732422 28.8178 7.33423 36.0013 16.3462 36.0013H19.6537C28.6672 36.0013 36.0007 28.8178 36.0007 19.9918V16.7533C36.0007 15.8008 35.9122 14.8453 35.7412 13.9093Z" fill="#FCCAD9"/>
</g>
<path fill-rule="evenodd" clip-rule="evenodd" d="M26.0629 10.1329H9.34543C8.73793 10.1329 8.25793 10.6144 8.25793 11.2219V24.7474C8.25793 25.3549 8.73793 25.8364 9.34543 25.8364H26.0629C26.6704 25.8364 27.1534 25.3549 27.1534 24.7474V11.2219C27.1264 10.6144 26.6464 10.1329 26.0629 10.1329Z" fill="white"/>
<path fill-rule="evenodd" clip-rule="evenodd" d="M27.1264 14.3121V11.2206C27.1264 10.6146 26.6464 10.1331 26.0374 10.1331H9.34543C8.73793 10.1331 8.25793 10.6146 8.25793 11.2206V14.3121H27.1264Z" fill="#E51F5C"/>
<path fill-rule="evenodd" clip-rule="evenodd" d="M12.519 12.235C12.1395 12.235 11.835 11.932 11.835 11.551V8.68903C11.835 8.30953 12.1395 8.00653 12.519 8.00653C12.8985 8.00653 13.203 8.30953 13.203 8.68903V11.551C13.203 11.932 12.8985 12.235 12.519 12.235Z" fill="white"/>
<path fill-rule="evenodd" clip-rule="evenodd" d="M22.9033 12.235C22.5238 12.235 22.2193 11.932 22.2193 11.551V8.68903C22.2193 8.30953 22.5238 8.00653 22.9033 8.00653C23.2843 8.00653 23.5873 8.30953 23.5873 8.68903V11.551C23.5873 11.932 23.2573 12.235 22.9033 12.235Z" fill="white"/>
<path fill-rule="evenodd" clip-rule="evenodd" d="M17.728 12.235C17.347 12.235 17.044 11.932 17.044 11.551V8.68903C17.044 8.30953 17.347 8.00653 17.728 8.00653C18.1075 8.00653 18.412 8.30953 18.412 8.68903V11.551C18.412 11.932 18.082 12.235 17.728 12.235Z" fill="white"/>
<mask id="mask1_1607_3251" style="mask-type:alpha" maskUnits="userSpaceOnUse" x="0" y="0" width="36" height="36">
<path fill-rule="evenodd" clip-rule="evenodd" d="M0 36H36V0H0V36Z" fill="white"/>
</mask>
<g mask="url(#mask1_1607_3251)">
<path fill-rule="evenodd" clip-rule="evenodd" d="M10.9155 19.0065H13.572V16.35H10.9155V19.0065Z" fill="#CED5E0"/>
<path fill-rule="evenodd" clip-rule="evenodd" d="M16.6155 19.0065H19.272V16.35H16.6155V19.0065Z" fill="#CED5E0"/>
<path fill-rule="evenodd" clip-rule="evenodd" d="M22.3514 19.0065H25.0079V16.35H22.3514V19.0065Z" fill="#CED5E0"/>
<path fill-rule="evenodd" clip-rule="evenodd" d="M10.9155 23.4675H13.572V20.811H10.9155V23.4675Z" fill="#E51F5C"/>
<path fill-rule="evenodd" clip-rule="evenodd" d="M16.6155 23.4675H19.272V20.811H16.6155V23.4675Z" fill="#CED5E0"/>
<path fill-rule="evenodd" clip-rule="evenodd" d="M22.3514 23.4675H25.0079V20.811H22.3514V23.4675Z" fill="#CED5E0"/>
<path fill-rule="evenodd" clip-rule="evenodd" d="M31.4639 11.5758C31.4639 14.4813 29.1074 16.8393 26.2004 16.8393C23.2949 16.8393 20.9384 14.4813 20.9384 11.5758C20.9384 8.67028 23.2949 6.31378 26.2004 6.31378C29.1074 6.31378 31.4639 8.67028 31.4639 11.5758Z" fill="white"/>
<path fill-rule="evenodd" clip-rule="evenodd" d="M30.8706 11.5758C30.8706 14.1558 28.7796 16.2453 26.2011 16.2453C23.6226 16.2453 21.5316 14.1558 21.5316 11.5758C21.5316 8.99728 23.6226 6.90778 26.2011 6.90778C28.7796 6.90778 30.8706 8.99728 30.8706 11.5758Z" fill="#859EFF"/>
<path fill-rule="evenodd" clip-rule="evenodd" d="M28.9501 9.03132C28.9051 8.98782 28.8526 8.96532 28.7926 8.96532C28.7311 8.96532 28.6786 8.98782 28.6336 9.03132L28.1776 9.48432C27.9271 9.24882 27.6421 9.06432 27.3196 8.93682C26.9971 8.80632 26.6656 8.74182 26.3236 8.74182C25.6801 8.74182 25.1191 8.93682 24.6406 9.32382C24.1621 9.71382 23.8471 10.2208 23.6941 10.8478V10.8733C23.6941 10.9033 23.7061 10.9303 23.7286 10.9513C23.7496 10.9738 23.7766 10.9843 23.8066 10.9843H24.5041C24.5551 10.9843 24.5911 10.9573 24.6091 10.9033C24.7081 10.6708 24.7696 10.5328 24.7936 10.4938C24.9586 10.2268 25.1761 10.0183 25.4476 9.86682C25.7191 9.71382 26.0101 9.63732 26.3236 9.63732C26.7946 9.63732 27.2011 9.79932 27.5461 10.1188L27.0631 10.6033C27.0196 10.6468 26.9956 10.6993 26.9956 10.7593C26.9956 10.8208 27.0196 10.8748 27.0631 10.9183C27.1066 10.9618 27.1606 10.9843 27.2221 10.9843H28.7926C28.8526 10.9843 28.9051 10.9618 28.9501 10.9183C28.9936 10.8748 29.0161 10.8208 29.0161 10.7593V9.18882C29.0161 9.12882 28.9936 9.07632 28.9501 9.03132Z" fill="white"/>
<path fill-rule="evenodd" clip-rule="evenodd" d="M28.817 11.882H28.1435C28.0925 11.882 28.0565 11.909 28.037 11.963C27.9395 12.197 27.878 12.3335 27.851 12.3725C27.689 12.6395 27.4715 12.8495 27.2 13.001C26.9285 13.1525 26.6375 13.2275 26.324 13.2275C26.0975 13.2275 25.8785 13.1855 25.667 13.1015C25.4585 13.0175 25.2695 12.899 25.103 12.7445L25.5845 12.2645C25.628 12.221 25.6505 12.167 25.6505 12.1055C25.6505 12.0455 25.628 11.993 25.5845 11.9495C25.5395 11.9045 25.487 11.882 25.4255 11.882H23.855C23.795 11.882 23.7425 11.9045 23.6975 11.9495C23.654 11.993 23.6315 12.0455 23.6315 12.1055V13.676C23.6315 13.7375 23.654 13.79 23.6975 13.835C23.7425 13.8785 23.795 13.9025 23.855 13.9025C23.9165 13.9025 23.969 13.8785 24.014 13.835L24.467 13.382C24.716 13.6205 25.001 13.8035 25.319 13.9325C25.6385 14.0615 25.9685 14.126 26.309 14.126C26.951 14.126 27.509 13.931 27.9845 13.541C28.463 13.154 28.7765 12.6455 28.925 12.0185C28.9265 12.014 28.928 12.0065 28.928 11.9945C28.928 11.9645 28.9175 11.9375 28.895 11.915C28.8725 11.894 28.847 11.882 28.817 11.882Z" fill="white"/>
</g>
</svg>
