<svg width="36" height="36" viewBox="0 0 36 36" fill="none" xmlns="http://www.w3.org/2000/svg">
<mask id="mask0_1607_3222" style="mask-type:alpha" maskUnits="userSpaceOnUse" x="0" y="0" width="36" height="36">
<path fill-rule="evenodd" clip-rule="evenodd" d="M0 0H36V36H0V0Z" fill="white"/>
</mask>
<g mask="url(#mask0_1607_3222)">
<path fill-rule="evenodd" clip-rule="evenodd" d="M35.7409 13.9097C34.7344 5.97607 27.8283 0 19.6532 0H16.3457C8.1721 0 1.26452 5.97607 0.258003 13.9097C0.0870011 14.8442 0 15.8012 0 16.7522V19.9923C0 28.8184 7.33359 36.0005 16.3457 36.0005H19.6532C28.6669 36.0005 36.0005 28.8184 36.0005 19.9923V16.7522C36.0005 15.8012 35.9134 14.8442 35.7409 13.9097" fill="#4A90E2"/>
</g>
<path fill-rule="evenodd" clip-rule="evenodd" d="M27.1987 9.02863H8.56093C8.03142 9.02863 7.60242 9.45763 7.60242 9.98714V25.3548C7.60242 25.8828 8.03142 26.3103 8.56093 26.3103H27.4402C27.9682 26.3103 28.3972 25.8828 28.3972 25.3548V10.2286C28.3687 9.55963 27.8392 9.02863 27.1987 9.02863Z" fill="white"/>
<path fill-rule="evenodd" clip-rule="evenodd" d="M28.3836 13.6284V9.98637C28.3836 9.45836 27.9546 9.02936 27.4251 9.02936H8.57436C8.04485 9.02936 7.61584 9.45836 7.61584 9.98637V13.6284H28.3836Z" fill="#7ADDFC"/>
<path fill-rule="evenodd" clip-rule="evenodd" d="M12.2922 11.3431C11.8737 11.3431 11.5406 11.0071 11.5406 10.5901V7.44008C11.5406 7.02158 11.8737 6.68707 12.2922 6.68707C12.7107 6.68707 13.0452 7.02158 13.0452 7.44008V10.5901C13.0452 11.0071 12.7107 11.3431 12.2922 11.3431Z" fill="white"/>
<path fill-rule="evenodd" clip-rule="evenodd" d="M23.721 11.3431C23.3025 11.3431 22.9695 11.0071 22.9695 10.5901V7.44008C22.9695 7.02158 23.3025 6.68707 23.721 6.68707C24.1395 6.68707 24.474 7.02158 24.474 7.44008V10.5901C24.474 11.0071 24.111 11.3431 23.721 11.3431Z" fill="white"/>
<path fill-rule="evenodd" clip-rule="evenodd" d="M21.7032 19.3897C21.8532 19.2427 21.9057 19.0312 21.8412 18.8317C21.7767 18.6322 21.6087 18.4897 21.4002 18.4597L19.4337 18.1732L18.5547 16.3926C18.4632 16.2051 18.2757 16.0881 18.0672 16.0881C17.8572 16.0881 17.6712 16.2051 17.5782 16.3926L16.6991 18.1732H16.6976L14.7326 18.4597C14.5241 18.4897 14.3561 18.6322 14.2916 18.8317C14.2271 19.0312 14.2796 19.2442 14.4296 19.3897L15.8531 20.7772L15.5156 22.7347C15.4886 22.8967 15.5306 23.0527 15.6356 23.1757C15.7976 23.3692 16.0811 23.4292 16.3076 23.3092L18.0657 22.3852H18.0672L19.8252 23.3092C19.9047 23.3527 19.9902 23.3737 20.0787 23.3737C20.2392 23.3737 20.3922 23.3017 20.4972 23.1757C20.6022 23.0527 20.6442 22.8967 20.6157 22.7347L20.2812 20.7772L21.7032 19.3897Z" fill="#FF3C5F"/>
</svg>
