<svg width="84" height="24" viewBox="0 0 84 24" fill="none" xmlns="http://www.w3.org/2000/svg">
<path fill-rule="evenodd" clip-rule="evenodd" d="M45.8139 5.997L45.5413 4.8841L45.246 4.06614L45.2232 3.08947L45.405 2.02167C45.5112 1.4162 45.7231 0.969244 46.0412 0.681525L46.4724 0.567802L47.0178 0.385967L47.7447 0.0908158L48.2218 0C48.661 0 48.9184 0.173996 48.9941 0.522496L49.4032 2.49866C49.5693 3.28637 49.5693 4.14973 49.4032 5.08853L50.1523 9.01835C50.2276 9.30617 50.3638 9.84394 50.5611 10.6312L51.151 12.9713C51.1968 12.9862 51.3554 13.4861 51.6278 14.4705L51.923 15.5153C52.0895 15.6972 52.3089 16.0985 52.5811 16.7193C52.9746 17.5827 53.2393 18.0293 53.3755 18.0597C53.5266 18.0293 53.8976 17.469 54.488 16.378C54.6699 16.0599 54.8965 15.5067 55.1691 14.7191C55.5055 13.7814 55.7504 13.1239 55.9038 12.7455L56.5171 11.2006L57.1979 9.33773L57.4675 7.90606L57.4446 6.65663C57.2631 5.3844 57.5204 4.54364 58.2173 4.13436L58.6261 3.99824L59.2621 3.8163L59.5573 3.63446L59.8982 3.52105C60.1252 3.52105 60.3146 3.6423 60.4662 3.88461C60.5719 4.64189 60.6023 5.36872 60.5568 6.06521C60.5719 6.48946 60.5415 7.03466 60.4662 7.70081C60.39 8.01877 60.2235 8.59461 59.9661 9.42723L59.6939 10.177L59.5573 10.6767L59.2393 11.5171C59.0878 11.7597 58.9212 12.1531 58.7398 12.6985L58.2626 14.1752L58.0582 14.7429L57.3084 16.3786C57.1115 17.0298 56.8235 17.6888 56.4451 18.355L55.8092 19.4906L56.0591 20.2403C56.0891 20.4825 55.9605 20.7404 55.6728 21.0124L54.8098 21.8078L54.4917 21.9896L53.9692 22.3302C53.7266 22.6333 53.4314 22.8451 53.0829 22.9662H52.4926C51.5685 22.9662 51.046 22.7393 50.9253 22.2849L50.857 22.0349C50.8262 21.8228 50.9174 21.5879 51.1297 21.3306L51.4932 20.8993L50.2662 18.7638L49.812 17.8096C49.6606 17.7495 49.4711 17.439 49.2442 16.8783C49.1985 16.7572 49.1077 16.5455 48.9715 16.2422C48.8808 16.0457 48.7671 15.765 48.6306 15.4017C48.4638 15.1443 48.2672 14.6522 48.0403 13.925L47.7223 12.9255L47.313 11.9263C47.1619 11.5778 46.8438 10.5029 46.3592 8.70029C46.2988 8.45839 46.1773 8.0039 45.9954 7.33745L45.8139 5.997ZM30.7579 11.4718L30.6896 13.5162V15.1065L30.9623 14.6294C31.1742 14.251 31.4769 13.7514 31.8711 13.1302C32.0527 12.8427 32.3024 12.3885 32.6205 11.7673C32.787 11.54 32.9614 11.2372 33.143 10.8585C33.2487 10.6621 33.4077 10.2906 33.6201 9.74541L33.9156 8.67751L34.0746 7.92807L34.1654 7.06471C34.2108 6.71672 34.2257 6.51228 34.2108 6.4515L34.0063 5.29289L33.7337 4.29341C33.6121 4.0511 33.4307 3.83179 33.1884 3.63438C33.0826 3.49826 32.787 3.49826 32.3024 3.63438C32.0447 3.81632 31.795 4.14975 31.5531 4.63397C31.4315 4.80083 31.3486 4.99407 31.3029 5.21337C31.2575 5.43319 31.2196 5.64129 31.1896 5.83799C31.1742 5.89867 31.1439 6.2321 31.0985 6.83737C31.0834 7.14087 31.0377 7.57214 30.9623 8.13251C30.947 8.49598 30.909 8.94262 30.8486 9.47265C30.7879 9.98762 30.7579 10.3361 30.7579 10.5175V11.4718ZM0.976677 13.062L0.885963 11.4264C0.870996 11.2298 0.575743 10.9646 0 10.6313C0.151597 10.2527 0.249947 9.65449 0.295253 8.83664C0.219505 8.39773 0.197107 8.10217 0.226938 7.95057L0.431375 6.9965L0.794842 5.17927C0.976677 4.25574 1.16625 3.64976 1.36305 3.36214L1.86264 2.27143C2.21104 1.49919 2.82466 1.07535 3.70268 0.999605C3.93012 0.923755 4.28555 0.848007 4.77047 0.77226C4.952 0.77226 5.21682 0.870915 5.56562 1.06751C5.79256 1.23438 5.93622 1.46173 5.99689 1.74894L6.0198 1.86256C6.06521 2.07494 6.08018 2.4158 6.06521 2.88505C6.06521 3.06648 6.0423 3.43789 5.99689 3.99826L5.88327 5.04315L5.72424 6.33788C5.6939 6.58009 5.6485 6.98937 5.58812 7.56461C5.60309 7.73127 5.56562 7.96595 5.4745 8.26873L5.24756 9.04087C5.24756 9.54097 5.19432 9.84396 5.08853 9.94974L4.952 11.0174L4.58854 13.1756L4.17976 16.3558L4.06604 17.7871L4.15696 18.8774C4.42951 19.4985 4.76264 19.877 5.15644 20.0131L5.90618 19.877L7.74622 19.8086C8.97305 19.7632 10.6159 19.4228 12.6757 18.7867C12.9634 18.6959 13.3876 18.5747 13.9481 18.4231L15.0786 17.9484L14.9021 17.4461L14.7664 16.7463C14.7712 16.7278 14.8013 16.3258 14.8567 15.5383C14.7656 15.5383 14.5612 15.7504 14.2431 16.1744L13.8797 16.6514L13.7735 16.8638L13.6753 17.0603C13.6449 17.1056 13.5996 17.1813 13.5392 17.2871L13.3118 17.4691L13.2889 17.5144L13.1757 17.0373V16.5378L13.1075 16.0153L13.5392 15.6061C13.9176 15.2581 14.2506 14.8566 14.5387 14.4021L14.6523 13.5845C14.6823 13.4937 14.9625 13.3572 15.4928 13.1757L16.2876 13.0166C16.7268 12.9256 17.1281 13.1153 17.4916 13.5845C17.5373 14.024 17.5598 14.3492 17.5598 14.5612C17.5598 14.6976 17.552 14.7884 17.5373 14.8337C17.1735 15.1519 17.007 15.417 17.0373 15.629C16.9766 15.7504 16.9388 15.9549 16.9237 16.2422C16.9087 16.5602 16.9312 16.7801 16.992 16.9011C17.1281 17.1739 17.3704 17.3479 17.7188 17.4236L18.342 17.211L18.2866 16.8782V16.5148L18.4914 15.9016L18.8561 15.4017L19.8578 14.6976L20.746 14.1298C20.761 14.1298 21.3528 13.9105 22.5222 13.4709C23.3718 13.2589 23.9867 13.1528 24.3665 13.1528C25.0041 13.1528 25.5352 13.2589 25.9605 13.4709C26.1124 13.5012 26.5073 13.6981 27.1446 14.0615C27.4331 14.2888 27.6152 14.569 27.6914 14.9021C27.7214 15.0232 27.7369 15.1368 27.7369 15.2426C27.7369 15.3338 27.6307 15.5685 27.4188 15.9469C27.1306 16.1593 26.7597 16.2954 26.3055 16.3558C25.9117 16.462 25.6012 16.5073 25.3743 16.4922C25.1621 16.5073 24.8819 16.4011 24.5338 16.1743C24.3668 15.9774 24.284 15.8184 24.284 15.6972C24.284 15.5608 24.4883 15.3941 24.8972 15.1973C25.3061 15.0008 25.4801 14.728 25.4197 14.3796C25.2228 14.1373 24.8593 14.0163 24.3293 14.0163C24.102 14.0163 23.8672 14.0469 23.6249 14.108C23.1401 14.3069 22.6175 14.6355 22.0575 15.0941C21.8302 15.4001 21.6862 15.7059 21.626 16.0119C21.5501 16.1802 21.5122 16.3941 21.5122 16.6539C21.4972 16.9903 21.5426 17.2811 21.6488 17.5256C21.8152 17.6787 22.0497 17.9156 22.3527 18.2369L22.8981 18.512C23.0946 18.5581 23.3524 18.6193 23.6704 18.6959H24.5791L25.2378 18.5594C25.4652 18.5139 25.6807 18.4457 25.8854 18.3549C26.0899 18.2642 26.3737 18.1355 26.7372 17.9685C26.8735 17.9086 27.1232 17.7642 27.4869 17.5373L28.0549 17.0826L28.3501 16.7875C28.6377 16.4999 28.7663 16.3409 28.7363 16.3104L28.8271 16.199V15.3562V12.2669C28.8117 11.9034 28.8117 11.3281 28.8271 10.5403L28.9632 7.90527C29.0236 6.66378 29.0994 5.94418 29.1905 5.74707C29.3113 4.77833 29.5233 4.0511 29.8267 3.56647L30.3033 2.79393L30.9623 2.067C31.1439 1.85523 31.4166 1.69599 31.78 1.58991C32.1434 1.48413 32.4389 1.44625 32.6659 1.47669C32.9989 1.53707 33.2341 1.59785 33.3702 1.65812C33.461 1.719 33.6655 1.87793 33.9834 2.13541C34.2257 2.33211 34.4381 2.58939 34.6195 2.90755L35.1195 4.04356C35.3011 4.45244 35.4298 5.11095 35.5055 6.01982C35.5358 6.30785 35.4676 6.85274 35.3011 7.65552C35.2707 7.89773 35.1496 8.44314 34.9376 9.29123C34.8164 9.7 34.5663 10.3131 34.1879 11.1312C34.0971 11.3581 33.8702 11.8352 33.5064 12.5621L32.9385 13.3801L32.2117 14.584L31.1896 16.1514L30.917 16.4013L30.8486 16.969L30.917 17.4461C30.9319 17.7342 30.9544 18.022 30.9849 18.3095C31.0306 18.779 31.0681 18.9835 31.0985 18.9228C31.2651 18.6501 31.4469 18.3628 31.6438 18.0597C31.9919 17.4994 32.3329 17.0752 32.6659 16.7875C33.6958 15.9096 34.5517 15.3488 35.2332 15.1065C35.4601 14.9703 35.8465 14.8113 36.3914 14.6294C36.7852 14.5536 37.1333 14.5387 37.4367 14.584C37.6182 14.6143 37.7922 14.6449 37.9592 14.6749C38.2919 14.8263 38.527 14.9475 38.6632 15.0382C38.8904 15.1897 39.1177 15.447 39.3446 15.8108C39.5719 16.1743 39.6856 16.4775 39.6856 16.7193C39.6856 16.7801 39.6627 16.8557 39.6174 16.9465C39.572 17.0981 39.5265 17.2725 39.4811 17.469C39.4205 17.5751 39.2767 17.8174 39.0495 18.196C38.8222 18.5747 38.7085 18.7867 38.7085 18.8321C38.7085 18.8928 38.7236 18.9306 38.7539 18.9456L39.6627 18.3095C40.0411 17.9766 40.4349 17.5448 40.8441 17.0147L41.9798 15.5153C41.6617 16.5757 41.4495 17.2192 41.3437 17.4461C41.2376 17.6734 41.0786 17.946 40.8667 18.2642C40.609 18.6429 40.4424 18.9082 40.367 19.0592C40.3063 19.135 40.2001 19.2715 40.0489 19.4682C39.9582 19.5589 39.8217 19.7178 39.6402 19.9452C39.5186 20.0659 39.3296 20.2479 39.072 20.4903C38.4662 20.9449 37.8909 21.1791 37.3455 21.1946C37.3455 21.2095 37.2698 21.2246 37.1186 21.2398C36.9821 21.2549 36.846 21.2549 36.7094 21.2398C36.4671 21.2246 36.1795 21.1791 35.8465 21.1037C35.6949 20.9976 35.6191 20.8007 35.6191 20.5131C35.6191 20.4827 35.6112 20.3994 35.5966 20.2632C35.5812 20.1266 35.5737 20.0131 35.5737 19.9224C35.5888 19.7708 35.6191 19.6347 35.6645 19.5134L36.0055 18.6729C36.2927 18.2791 36.4372 17.8857 36.4372 17.492C36.4372 17.3254 36.3838 17.227 36.2773 17.1963C36.0032 17.1209 35.7298 17.0826 35.456 17.0826C34.5431 17.0826 33.5615 17.5678 32.5121 18.5368C32.3445 18.7183 32.086 19.0592 31.736 19.5589C31.6599 19.6647 31.546 19.9298 31.3941 20.354V20.8311V21.3306C31.3941 21.4064 31.4315 21.5126 31.5077 21.6488C31.5831 21.7852 31.636 21.9022 31.6663 22.001C31.6967 22.0992 31.7121 22.2698 31.7121 22.512C31.7121 22.6633 31.6738 22.8073 31.5984 22.9438L31.0985 23.3298C30.75 23.254 30.3412 23.2995 29.872 23.4662C29.4175 23.4662 29.1598 23.2464 29.0994 22.8073L28.9179 21.6034L28.6681 19.2637L28.6452 19.3998C28.4179 19.8844 28.1077 20.4523 27.7139 21.1037C27.6685 21.1641 27.6003 21.1946 27.5094 21.1946C27.3584 21.1946 27.2139 21.1262 27.0779 20.9901C26.9412 20.8535 26.8734 20.6871 26.8734 20.4903V20.2403C26.7234 19.9827 26.5872 19.6117 26.4645 19.1271C26.4822 19.0778 26.5071 19.0231 26.5379 18.9638L26.3509 19.0818L25.4425 19.4228C24.791 19.6647 24.1779 19.7861 23.6025 19.7861C22.8448 19.7861 22.2694 19.7408 21.8756 19.6497C21.4214 19.5738 20.8989 19.4306 20.3082 19.2183L19.5589 18.9456L18.9453 18.4686L18.9226 18.4295C18.7327 18.5662 18.5288 18.6784 18.3096 18.7638L17.6506 19.0139L16.7647 19.1271C16.507 19.0971 16.1889 19.0064 15.8105 18.8549L15.327 18.4069C15.2011 18.5773 15.0673 18.7348 14.9245 18.8774L14.1295 19.5134C14.4171 19.5435 14.6215 19.6271 14.7432 19.7632C14.8035 19.9144 14.8338 20.0813 14.8338 20.2632C14.8338 20.369 14.8261 20.4752 14.8109 20.5813C14.7048 20.6267 14.508 20.6949 14.2206 20.7856L13.3571 21.1492C13.0695 21.2853 12.5396 21.4897 11.767 21.7623L9.94982 22.2169L7.95066 22.6258L4.13436 22.8526C3.34685 22.8984 2.71857 22.762 2.24891 22.4438C1.67358 22.4438 1.22652 22.224 0.908463 21.7852L0.590404 21.1492L0.544996 20.2632C0.484622 19.1126 0.50753 17.984 0.613312 16.8782L0.976677 13.062ZM14.8567 10.7903L14.9475 10.722C14.811 10.5558 14.7123 10.3439 14.6523 10.0862C14.6066 9.73784 14.6823 9.40472 14.8792 9.08676C15.0758 8.7686 15.3409 8.55673 15.6744 8.45044C15.7044 8.08717 16.0832 7.84486 16.8101 7.72371L16.9691 7.74611C17.1056 7.79162 17.2339 7.89037 17.3554 8.04177C17.3396 8.81401 17.2785 9.30616 17.1705 9.51803C17.1086 9.98759 16.9466 10.3131 16.6844 10.495L15.9212 11.0175L15.4812 11.063C15.1725 11.063 14.9643 10.9721 14.8567 10.7903ZM61.1686 11.1083L61.304 11.3128C61.394 11.4946 61.672 11.5854 62.1382 11.5854L62.4315 11.4717L63.1527 10.9493C63.5735 10.6466 63.7839 10.3285 63.7839 9.99511C63.889 9.82865 63.9419 9.61668 63.9419 9.35899C63.9419 9.1625 63.9118 8.94269 63.8517 8.70037C63.626 8.38242 63.4906 8.21585 63.446 8.20038L63.2881 8.17798C63.0177 8.22339 62.8073 8.28407 62.6565 8.35941C62.2356 8.57179 61.9882 8.70831 61.9126 8.76869C61.6423 9.10171 61.4319 9.35186 61.2815 9.51802C61.0258 9.88159 60.9128 10.2303 60.9432 10.563C61.0033 10.821 61.0786 11.0025 61.1686 11.1083ZM70.4391 20.8536C70.1514 20.8993 69.947 20.9672 69.8259 21.0584L69.3941 21.4672C69.2577 21.6032 69.1215 21.7016 68.9854 21.7623C68.7278 21.8835 68.5308 22.0579 68.3946 22.2848L68.2356 22.6713C68.1752 22.8223 68.1448 22.9437 68.1448 23.0346C68.2356 23.2313 68.3418 23.413 68.4629 23.5798L68.5308 23.6707C68.5615 23.7007 68.6294 23.716 68.7352 23.716L69.1444 23.7389C69.3563 23.4963 69.5532 23.3751 69.7347 23.3751C70.2197 23.3751 70.7267 23.08 71.2567 22.4893C71.4541 22.141 71.5373 21.8077 71.5068 21.4897C71.325 21.0654 70.9695 20.8536 70.4391 20.8536ZM69.0761 11.8126C68.5308 11.8126 68.0461 12.1157 67.6223 12.7211C67.2588 13.221 67.0238 13.7739 66.918 14.3796C67.1599 14.6065 67.3722 14.7203 67.5541 14.7203C68.0083 14.6293 68.3491 14.4021 68.5761 14.0386C68.8034 13.9179 69.0153 13.6793 69.2122 13.323C69.4091 12.9675 69.4924 12.6681 69.4623 12.4259C69.4316 12.2141 69.3033 12.0097 69.0761 11.8126ZM59.2851 16.0153L59.7166 15.606C60.0952 15.258 60.4282 14.8567 60.7162 14.4021L60.83 13.5846C60.8601 13.4937 61.1402 13.3572 61.6706 13.1757L62.4651 13.0166C62.9044 12.9255 63.3058 13.1152 63.6691 13.5846C63.715 14.0241 63.7374 14.3492 63.7374 14.5611C63.7374 14.6977 63.7295 14.7885 63.715 14.8338C63.351 15.1518 63.1845 15.417 63.2149 15.629C63.1542 15.7505 63.1163 15.9549 63.1013 16.2421C63.0863 16.5602 63.1088 16.7799 63.1695 16.9012C63.3058 17.1738 63.548 17.3478 63.8964 17.4236L64.8959 17.0827L65.0381 16.9812L64.8963 16.0831C64.866 15.932 64.8889 15.6971 64.9642 15.3791C64.9642 15.3033 65.0778 14.9324 65.3052 14.2661L65.6003 13.3802L66.1457 12.1986C66.2364 11.9413 66.3955 11.7598 66.6227 11.6536C66.9863 11.1083 67.6145 10.5631 68.5083 10.018C68.599 9.6695 68.9624 9.4955 69.5986 9.4955C70.0832 9.4955 70.5298 9.67713 70.9386 10.0405C71.0598 10.0713 71.1506 10.3513 71.2114 10.8811C71.2417 11.1845 71.2567 11.4114 71.2567 11.5625C71.2417 11.699 71.1506 11.7978 70.9844 11.858C71.0297 12.2822 70.7038 12.9183 70.0073 13.766C69.3409 14.5536 68.7809 15.0536 68.3263 15.2655L67.8721 15.811L67.2813 16.3105L67.1677 16.9011C67.2588 17.6734 67.6902 18.2338 68.4629 18.5822L69.5077 18.8774C71.0219 18.7261 72.2258 18.2338 73.1196 17.4007C73.3468 17.3099 73.5513 17.121 73.7328 16.833C73.7932 16.7421 73.8541 16.6664 73.9148 16.6056C73.9238 16.6935 73.9318 16.7764 73.939 16.8569C74.0785 16.5677 74.4146 16.3312 74.7264 16.1118C74.8584 16.0189 74.9861 15.9291 75.0927 15.8396C75.0927 15.8396 75.8426 15.1457 76.0529 14.8793C76.0867 14.8364 76.1216 14.7926 76.1573 14.7477C76.4238 14.4128 76.7366 14.0197 77.0038 13.539C77.0496 13.4787 77.2232 13.1758 77.5267 12.6303L77.5925 12.5082C77.6764 12.3522 77.7606 12.196 77.8444 12.0396L78.1399 11.4718L77.0496 11.6537H76.2998H76.0271H75.8228C75.6559 11.6537 75.4669 11.6158 75.2549 11.5407C74.9673 11.4504 74.8158 11.3453 74.8003 11.225C74.7703 11.0595 74.7858 10.8041 74.846 10.4579C74.8706 10.3156 74.8917 10.1927 74.9097 10.0878L74.1646 9.24566L73.3695 8.54132C73.1122 8.31408 72.7333 8.0454 72.2337 7.73498C71.7339 7.42476 71.113 7.20108 70.3708 7.06465C69.4928 7.06465 68.9096 7.118 68.6216 7.22378L67.5087 7.8599C67.3422 8.0114 67.0695 8.32935 66.6907 8.81398L66.4181 9.58632L66.1003 9.88157L65.6911 9.92728C65.3585 9.92728 65.1008 9.88157 64.9189 9.79075C64.6616 9.6696 64.4797 9.53337 64.3736 9.38188C64.2828 8.54927 64.4951 7.89777 65.0096 7.42822C65.4492 7.01935 65.8655 6.72419 66.259 6.54236L67.3043 6.04257C67.6223 5.89117 67.9933 5.80036 68.4171 5.77002C68.5991 5.72461 68.9929 5.7018 69.5986 5.7018C69.947 5.7018 70.216 5.74375 70.4049 5.82663C70.5944 5.91031 70.9841 6.06517 71.5747 6.29251C71.9083 6.47404 72.2449 6.66382 72.5856 6.86032C72.9266 7.05722 73.2258 7.27703 73.4832 7.51883C73.8465 7.86774 74.2021 8.21583 74.551 8.56423C74.6687 8.70942 74.795 8.91833 74.9293 9.18874C74.9124 9.00396 74.8996 8.81123 74.8915 8.60883C75.0122 8.54886 75.2774 8.51852 75.6866 8.51852H76.8452L77.413 8.60964H78.276C78.4126 8.59467 78.5562 8.59467 78.7077 8.60964C78.9954 8.56423 79.2149 8.39767 79.3663 8.10964L80.2311 5.52913C80.3677 5.18114 80.5642 4.92386 80.8218 4.75689L81.0492 4.8024L81.1399 4.84771C81.4272 4.9992 81.5863 5.20364 81.617 5.46133V5.93801L81.5259 6.30178L80.9341 8.29158C80.9341 8.32202 81.1232 8.4278 81.5019 8.60964C81.8954 8.65495 82.3347 8.74576 82.8196 8.88198L82.1835 9.76825L82.7514 10.2453C82.9479 10.3514 83.198 10.4951 83.501 10.6766C83.6523 10.7828 83.743 10.889 83.7738 10.9948C83.7738 11.0099 83.4865 11.04 82.9129 11.0858C82.3387 11.1312 82.0293 11.1536 81.9839 11.1536C81.7725 11.1536 81.5725 11.1729 81.3838 11.2107C81.1948 11.2486 81.0021 11.2827 80.8059 11.3127C80.6397 11.2827 80.4735 11.2827 80.3074 11.3127L80.2624 11.7452C80.2624 11.8817 80.2469 12.0411 80.217 12.2233L79.849 14.4029L79.6397 16.0156L79.6166 17.3782L79.7755 17.7871C79.8209 17.7871 79.9038 17.8024 80.0253 17.8324C80.1312 17.8478 80.2219 17.8478 80.2979 17.8324C80.6007 17.7721 80.9642 17.5449 81.3882 17.151L81.7518 16.81L82.1835 16.3105L82.3879 16.1285C82.4333 16.1285 82.4483 16.1744 82.4333 16.265C82.4178 16.4166 82.4178 16.5302 82.4333 16.6056C82.4937 17.0452 82.2742 17.4843 81.7746 17.9232L81.2747 18.491L81.0703 18.6959L80.5707 19.2183C79.798 20.0206 79.2831 20.4447 79.0258 20.4902C78.3444 20.369 77.9277 19.9677 77.7766 19.2861L77.6857 18.332C77.5945 17.4082 77.6475 16.3708 77.8444 15.2193L78.1403 13.47L77.4588 14.6065C77.4588 14.6065 76.5889 15.7574 76.277 16.0955C75.8065 16.6053 74.4243 17.703 73.9462 18.0784C73.9434 18.088 73.9405 18.0972 73.9373 18.1051L70.8025 20.2179L69.6214 20.536L68.5083 20.7403L68.0083 20.6721C67.4933 20.5959 66.918 20.3161 66.2819 19.8315C66.191 19.6042 66.0471 19.3848 65.8501 19.1725L65.396 18.332L65.3605 18.2173C65.101 18.455 64.8105 18.6381 64.4873 18.7638L63.8282 19.014L62.9422 19.1272C62.6846 19.0971 62.3665 19.0064 61.9882 18.8548L61.3748 18.2866L61.0797 17.4461L60.944 16.7461C60.9489 16.7278 60.979 16.3257 61.0344 15.5382C60.9432 15.5382 60.7387 15.7505 60.4207 16.1743L60.0573 16.6514C60.0246 16.7165 59.9898 16.7862 59.9529 16.8601C59.9212 16.9236 59.8879 16.9903 59.8529 17.0602C59.8224 17.1056 59.7771 17.1813 59.7166 17.2871L59.4894 17.4691L59.4666 17.5144L59.3533 17.0374V16.5377L59.2851 16.0153Z" fill="white"/>
</svg>
