<svg width="22" height="22" viewBox="0 0 22 22" fill="none" xmlns="http://www.w3.org/2000/svg">
<path fill-rule="evenodd" clip-rule="evenodd" d="M21.7357 11.152C21.8907 5.16098 17.1437 0.159982 11.1537 0.00398162C11.0635 0.00163272 10.9734 0.000395407 10.8837 0.000257181C5.01122 -0.00878471 0.158326 4.6852 0.00368964 10.587C-0.15131 16.579 4.59669 21.58 10.5857 21.736C16.5777 21.891 21.5787 17.144 21.7357 11.152ZM2.00369 10.638C2.13069 5.74998 6.21069 1.87598 11.0997 2.00298C15.9897 2.13098 19.8647 6.21098 19.7367 11.099C19.6097 15.989 15.5287 19.863 10.6387 19.736C5.74969 19.609 1.87569 15.528 2.00369 10.638ZM10.3937 8.88298C11.0037 8.89798 11.4707 9.05798 11.7947 9.36098C12.1177 9.66498 12.2747 10.052 12.2617 10.523C12.2587 10.621 12.2427 10.793 12.2137 11.038C12.1973 11.1906 12.1705 11.342 12.1337 11.491L12.0697 11.713L11.3797 13.934C11.3171 14.1351 11.2651 14.3394 11.2237 14.546C11.1847 14.716 11.1597 14.891 11.1487 15.067C11.1407 15.364 11.2017 15.569 11.3317 15.679C11.4617 15.791 11.6917 15.851 12.0187 15.86C12.1737 15.864 12.3467 15.84 12.5437 15.793C12.7007 15.753 12.8227 15.718 12.9107 15.686L12.9707 15.662L12.7827 16.348C12.2697 16.535 11.8627 16.676 11.5557 16.774C11.2129 16.8768 10.8552 16.9211 10.4977 16.905C9.88269 16.888 9.40869 16.726 9.07569 16.418C8.74911 16.1245 8.57207 15.6995 8.59369 15.261C8.59869 15.082 8.61669 14.899 8.64569 14.713L8.70869 14.396L8.78569 14.082L9.47969 11.853C9.54069 11.638 9.59469 11.435 9.63769 11.246C9.68169 11.056 9.70469 10.879 9.70869 10.718C9.71569 10.433 9.66269 10.231 9.54669 10.115C9.43069 9.99998 9.20669 9.93798 8.87269 9.92898C8.70156 9.92585 8.53085 9.94706 8.36569 9.99198C8.25069 10.024 8.14569 10.054 8.05069 10.084L7.91869 10.128L8.10569 9.43998C8.52569 9.28098 8.92769 9.14598 9.31069 9.03598C9.66155 8.92896 10.0269 8.87701 10.3937 8.88198V8.88298ZM12.9597 5.26298C12.68 4.98184 12.3003 4.82292 11.9037 4.82098H11.9047C11.5081 4.80314 11.1205 4.94217 10.8257 5.20798C10.5227 5.47598 10.3637 5.80698 10.3537 6.19598C10.3411 6.57654 10.4935 6.944 10.7717 7.20398C11.0547 7.48208 11.4349 7.63916 11.8317 7.64198C12.2263 7.65985 12.6123 7.52235 12.9067 7.25898C13.2097 6.99298 13.3657 6.66398 13.3767 6.27398C13.3857 5.88498 13.2467 5.54798 12.9597 5.26298Z" fill="white"/>
</svg>
