<svg width="36" height="36" viewBox="0 0 36 36" fill="none" xmlns="http://www.w3.org/2000/svg">
<path fill-rule="evenodd" clip-rule="evenodd" d="M35.5772 17.9136C35.5772 27.6686 27.6692 35.5776 17.9132 35.5776C8.15818 35.5776 0.250183 27.6686 0.250183 17.9136C0.250183 8.1586 8.15818 0.249603 17.9132 0.249603C27.6692 0.249603 35.5772 8.1586 35.5772 17.9136Z" fill="#F3FEFD"/>
<path fill-rule="evenodd" clip-rule="evenodd" d="M35.5772 17.9136C35.5772 27.6686 27.6692 35.5776 17.9132 35.5776C8.15818 35.5776 0.250183 27.6686 0.250183 17.9136C0.250183 8.1586 8.15818 0.249603 17.9132 0.249603C27.6692 0.249603 35.5772 8.1586 35.5772 17.9136Z" stroke="#88D1CF" stroke-width="0.5"/>
<path fill-rule="evenodd" clip-rule="evenodd" d="M31.619 14.7472C31.619 17.8012 29.143 20.2772 26.089 20.2772C23.035 20.2772 20.56 17.8012 20.56 14.7472C20.56 11.6932 23.035 9.21719 26.089 9.21719C29.143 9.21719 31.619 11.6932 31.619 14.7472Z" fill="#B6D1CC"/>
<path fill-rule="evenodd" clip-rule="evenodd" d="M29.5741 14.7472C29.5741 16.6722 28.0141 18.2322 26.0891 18.2322C24.1651 18.2322 22.6051 16.6722 22.6051 14.7472C22.6051 12.8222 24.1651 11.2622 26.0891 11.2622C28.0141 11.2622 29.5741 12.8222 29.5741 14.7472Z" fill="white"/>
<path fill-rule="evenodd" clip-rule="evenodd" d="M4.20819 14.7472C4.20819 17.8012 6.68419 20.2772 9.73819 20.2772C12.7922 20.2772 15.2672 17.8012 15.2672 14.7472C15.2672 11.6932 12.7922 9.21719 9.73819 9.21719C6.68419 9.21719 4.20819 11.6932 4.20819 14.7472Z" fill="#A3C1BC"/>
<path fill-rule="evenodd" clip-rule="evenodd" d="M6.25311 14.7472C6.25311 16.6722 7.81311 18.2322 9.73811 18.2322C11.6621 18.2322 13.2221 16.6722 13.2221 14.7472C13.2221 12.8222 11.6621 11.2622 9.73811 11.2622C7.81311 11.2622 6.25311 12.8222 6.25311 14.7472Z" fill="white"/>
<path fill-rule="evenodd" clip-rule="evenodd" d="M17.9136 28.5694L9.43457 17.9604L12.6726 13.5074H23.1546L26.3936 17.9604L17.9136 28.5694Z" fill="#B6D1CC"/>
<path fill-rule="evenodd" clip-rule="evenodd" d="M17.8292 13.5074H12.6732L9.4342 17.9604L17.8292 28.4634V13.5074Z" fill="#A3C1BC"/>
<path fill-rule="evenodd" clip-rule="evenodd" d="M19.4977 28.246C19.4977 28.893 18.7887 29.417 17.9137 29.417C17.0387 29.417 16.3297 28.893 16.3297 28.246C16.3297 27.599 17.0387 27.075 17.9137 27.075C18.7887 27.075 19.4977 27.599 19.4977 28.246Z" fill="#893232"/>
<path fill-rule="evenodd" clip-rule="evenodd" d="M15.6942 18.7762C15.6942 19.4042 15.1852 19.9122 14.5582 19.9122C13.9302 19.9122 13.4212 19.4042 13.4212 18.7762C13.4212 18.1482 13.9302 17.6402 14.5582 17.6402C15.1852 17.6402 15.6942 18.1482 15.6942 18.7762Z" fill="#13342C"/>
<path fill-rule="evenodd" clip-rule="evenodd" d="M22.6502 18.7762C22.6502 19.4042 22.1412 19.9122 21.5142 19.9122C20.8862 19.9122 20.3772 19.4042 20.3772 18.7762C20.3772 18.1482 20.8862 17.6402 21.5142 17.6402C22.1412 17.6402 22.6502 18.1482 22.6502 18.7762Z" fill="#13342C"/>
</svg>
