<svg width="18" height="19" viewBox="0 0 18 19" fill="none" xmlns="http://www.w3.org/2000/svg">
<path fill-rule="evenodd" clip-rule="evenodd" d="M17.4375 3H0.5625C0.251859 3 0 2.71216 0 2.35714V0.642857C0 0.287839 0.251859 0 0.5625 0H17.4375C17.7481 0 18 0.287839 18 0.642857V2.35714C18 2.71216 17.7481 3 17.4375 3ZM18 9.65126V7.93697C18 7.58196 17.7481 7.29412 17.4375 7.29412H0.5625C0.251859 7.29412 0 7.58196 0 7.93697V9.65126C0 10.0063 0.251859 10.2941 0.5625 10.2941H17.4375C17.7481 10.2941 18 10.0063 18 9.65126ZM18 15.937V17.6513C18 18.0063 17.7481 18.2941 17.4375 18.2941H0.5625C0.251859 18.2941 0 18.0063 0 17.6513V15.937C0 15.582 0.251859 15.2941 0.5625 15.2941H17.4375C17.7481 15.2941 18 15.582 18 15.937Z" fill="white"/>
</svg>
