<svg width="36" height="36" viewBox="0 0 36 36" fill="none" xmlns="http://www.w3.org/2000/svg">
<mask id="mask0_1607_3211" style="mask-type:alpha" maskUnits="userSpaceOnUse" x="0" y="0" width="36" height="36">
<path fill-rule="evenodd" clip-rule="evenodd" d="M0 0H36V36H0V0Z" fill="white"/>
</mask>
<g mask="url(#mask0_1607_3211)">
<path fill-rule="evenodd" clip-rule="evenodd" d="M35.7421 13.9096C34.7355 5.97605 27.8295 0 19.6529 0H16.3454C8.17182 0 1.26577 5.97605 0.259258 13.9096C0.0867566 14.8441 -0.000244141 15.8011 -0.000244141 16.7521V19.9922C-0.000244141 28.8182 7.33332 36.0003 16.3454 36.0003H19.6529C28.6665 36.0003 36.0001 28.8182 36.0001 19.9922V16.7521C36.0001 15.8011 35.9131 14.8441 35.7421 13.9096Z" fill="#F5D54E"/>
</g>
<path fill-rule="evenodd" clip-rule="evenodd" d="M29.9998 17.9996C29.9998 24.6281 24.6283 29.9997 17.9997 29.9997C11.3727 29.9997 5.99963 24.6281 5.99963 17.9996C5.99963 11.3725 11.3727 5.99945 17.9997 5.99945C24.6283 5.99945 29.9998 11.3725 29.9998 17.9996Z" fill="#EE5341"/>
<path fill-rule="evenodd" clip-rule="evenodd" d="M25.7649 18.0039C25.7649 22.2895 22.2893 25.765 17.9993 25.765C13.7123 25.765 10.2352 22.2895 10.2352 18.0039C10.2352 13.7184 13.7123 10.2429 17.9993 10.2429C22.2893 10.2429 25.7649 13.7184 25.7649 18.0039Z" fill="white"/>
<path fill-rule="evenodd" clip-rule="evenodd" d="M21.8377 21.5621C21.6802 19.8251 20.3692 18.4211 18.6771 18.1211L18.0996 18.0716C18.0336 18.0656 17.9676 18.0626 17.9001 18.0611C17.2491 18.0446 16.6401 17.8676 16.1076 17.5676C14.9361 16.9061 14.1471 15.6521 14.1471 14.212C14.1471 14.2 14.1486 14.1865 14.1486 14.1745C14.1696 12.064 15.8841 10.243 17.9991 10.243L17.9781 10.234C17.8791 10.234 17.7846 10.243 17.6886 10.2505C13.6791 10.408 10.4481 13.606 10.2441 17.6036C10.2396 17.7356 10.2366 17.8691 10.2366 18.0041C10.2366 20.1476 11.1051 22.0871 12.5091 23.4911C12.6846 23.6666 12.8691 23.8346 13.0611 23.9921C13.2516 24.1511 13.4526 24.2996 13.6596 24.4391C14.8986 25.2761 16.3926 25.7651 17.9991 25.7651C18.0336 25.7651 18.0666 25.7636 18.0996 25.7636C19.1406 25.7366 20.0782 25.2971 20.7562 24.6041C21.4342 23.9096 21.8542 22.9616 21.8542 21.9131C21.8542 21.7946 21.8482 21.6776 21.8377 21.5621Z" fill="#404041"/>
<path fill-rule="evenodd" clip-rule="evenodd" d="M21.8377 21.5621C21.6802 19.8251 20.3692 18.4211 18.6771 18.1211L18.0996 18.0716C18.0336 18.0656 17.9676 18.0626 17.9001 18.0611C17.2491 18.0446 16.6401 17.8676 16.1076 17.5676C14.9361 16.9061 14.1471 15.6521 14.1471 14.212C14.1471 14.2 14.1486 14.1865 14.1486 14.1745C14.1696 12.064 15.8841 10.243 17.9991 10.243L17.9781 10.234C17.8791 10.234 17.7846 10.243 17.6886 10.2505C13.6791 10.408 10.4481 13.606 10.2441 17.6036C10.2396 17.7356 10.2366 17.8691 10.2366 18.0041C10.2366 20.1476 11.1051 22.0871 12.5091 23.4911C12.6846 23.6666 12.8691 23.8346 13.0611 23.9921C13.2516 24.1511 13.4526 24.2996 13.6596 24.4391C14.8986 25.2761 16.3926 25.7651 17.9991 25.7651C18.0336 25.7651 18.0666 25.7636 18.0996 25.7636C19.1406 25.7366 20.0782 25.2971 20.7562 24.6041C21.4342 23.9096 21.8542 22.9616 21.8542 21.9131C21.8542 21.7946 21.8482 21.6776 21.8377 21.5621Z" fill="#404041"/>
<path fill-rule="evenodd" clip-rule="evenodd" d="M18.0598 12.5181C17.1852 12.5181 16.4742 13.2291 16.4742 14.1021C16.4742 14.9751 17.1852 15.6846 18.0598 15.6846C18.9328 15.6846 19.6438 14.9751 19.6438 14.1021C19.6438 13.2291 18.9328 12.5181 18.0598 12.5181Z" fill="#404041"/>
<path fill-rule="evenodd" clip-rule="evenodd" d="M18.0598 20.525C17.1852 20.525 16.4742 21.236 16.4742 22.109C16.4742 22.982 17.1852 23.6915 18.0598 23.6915C18.9328 23.6915 19.6438 22.982 19.6438 22.109C19.6438 21.236 18.9328 20.525 18.0598 20.525Z" fill="white"/>
<path fill-rule="evenodd" clip-rule="evenodd" d="M30.2546 17.7652C29.9621 11.2102 24.5381 5.96765 17.914 5.96765C15.61 5.96765 13.453 6.60216 11.6035 7.70467C11.599 7.70617 11.5975 7.70917 11.593 7.71067C11.5105 7.76167 11.428 7.81117 11.3469 7.86217C9.74044 8.86568 8.34242 10.2532 7.30592 11.9887C7.27142 12.0472 7.23842 12.1087 7.20542 12.1672C7.18891 12.1942 7.17391 12.2227 7.15891 12.2497C7.07641 12.3952 6.99691 12.5407 6.92191 12.6877C6.87241 12.7837 6.82441 12.8797 6.77791 12.9787C6.73591 13.0612 6.69841 13.1452 6.65941 13.2307C6.61141 13.3342 6.56641 13.4392 6.52141 13.5457C6.48691 13.6267 6.45541 13.7062 6.42241 13.7872C6.37891 13.8982 6.33691 14.0107 6.29491 14.1232C6.26791 14.2012 6.23941 14.2777 6.21391 14.3557C6.17341 14.4727 6.13591 14.5912 6.09841 14.7097C6.07741 14.7847 6.05491 14.8582 6.03391 14.9317C5.9979 15.0547 5.9664 15.1792 5.9334 15.3037C5.9154 15.3742 5.8989 15.4447 5.8824 15.5152C5.8509 15.6442 5.8254 15.7747 5.7984 15.9052C5.7864 15.9727 5.7729 16.0387 5.7609 16.1062C5.7354 16.2397 5.7144 16.3762 5.6934 16.5127C5.6844 16.5742 5.6754 16.6372 5.6664 16.6987C5.6499 16.8412 5.6334 16.9837 5.6184 17.1262C5.6139 17.1802 5.6079 17.2357 5.6034 17.2912C5.5929 17.4427 5.5824 17.5957 5.5749 17.7472L5.5704 17.8748C5.5644 18.0233 5.5614 18.1718 5.5614 18.3203V18.3803C5.5614 18.3998 5.5614 18.4178 5.5629 18.4358C5.5794 20.2508 5.9889 21.9743 6.71191 23.5238L6.75991 23.6243C6.81691 23.7458 6.87691 23.8673 6.93991 23.9858C7.95992 25.9703 9.52593 27.7028 11.578 28.9283C12.61 29.5463 13.699 29.9904 14.809 30.2784C14.818 30.2814 14.8255 30.2829 14.8345 30.2859C14.989 30.3249 15.145 30.3594 15.2995 30.3939C15.349 30.4044 15.3985 30.4164 15.448 30.4254C15.5425 30.4449 15.6385 30.4644 15.733 30.4809C15.8455 30.5004 15.9565 30.5184 16.069 30.5364C16.1515 30.5469 16.2325 30.5589 16.315 30.5694C16.441 30.5874 16.5685 30.6009 16.6945 30.6129C16.7635 30.6189 16.831 30.6264 16.9 30.6309C17.041 30.6429 17.185 30.6534 17.329 30.6594C17.377 30.6624 17.425 30.6639 17.473 30.6654C17.6185 30.6699 17.767 30.6729 17.914 30.6729V30.6714C22.114 30.6639 26.2121 28.5188 28.5176 24.6578L27.4256 24.0053C25.3346 27.5093 21.598 29.4368 17.785 29.3993C17.6455 29.3978 17.506 29.3963 17.3665 29.3888C17.335 29.3873 17.302 29.3843 17.269 29.3828C17.1115 29.3738 16.9555 29.3618 16.7995 29.3468C16.7785 29.3453 16.7575 29.3423 16.7365 29.3393C16.57 29.3213 16.405 29.3003 16.2385 29.2763C16.2265 29.2748 16.216 29.2718 16.204 29.2703C16.03 29.2433 15.856 29.2133 15.685 29.1773C15.6835 29.1758 15.6805 29.1758 15.679 29.1758C12.2785 28.4783 9.44193 26.2148 7.95542 23.1758C7.94192 23.1518 7.92992 23.1263 7.91642 23.1023C7.87142 23.0078 7.83092 22.9103 7.78592 22.8143C7.75142 22.7348 7.71542 22.6553 7.68092 22.5743C7.66292 22.5323 7.64942 22.4873 7.63142 22.4453C7.18742 21.3353 6.92191 20.1578 6.85141 18.9623C6.84991 18.9503 6.84841 18.9368 6.84841 18.9248C6.84391 18.8363 6.84391 18.7463 6.84091 18.6578C6.83791 18.5543 6.83341 18.4538 6.83341 18.3518C6.83191 18.2963 6.83491 18.2378 6.83491 18.1823C6.83791 18.0473 6.83941 17.9153 6.84541 17.7832L6.85291 17.6467C6.86191 17.5042 6.87241 17.3617 6.88591 17.2222C6.89041 17.1802 6.89641 17.1397 6.90091 17.0992C6.91591 16.9552 6.93391 16.8112 6.95491 16.6702C6.96091 16.6312 6.96841 16.5922 6.97291 16.5532C6.99691 16.4107 7.02241 16.2667 7.05091 16.1242C7.05841 16.0882 7.06591 16.0507 7.07491 16.0162C7.10491 15.8707 7.13791 15.7297 7.17241 15.5872C7.18141 15.5527 7.19191 15.5197 7.20091 15.4867C7.23842 15.3427 7.27892 15.1987 7.32242 15.0562C7.33142 15.0277 7.34192 14.9977 7.34942 14.9707C7.39742 14.8237 7.44542 14.6782 7.49792 14.5357L7.52492 14.4652C7.58042 14.3152 7.63742 14.1697 7.69892 14.0242C7.70492 14.0077 7.71242 13.9912 7.71992 13.9762C7.78592 13.8232 7.85192 13.6717 7.92542 13.5217C7.92542 13.5187 7.92692 13.5172 7.92842 13.5142C8.78493 11.7427 10.0974 10.2337 11.7175 9.13718C11.7235 9.13118 11.7325 9.12668 11.7415 9.12068C11.848 9.04868 11.9575 8.98118 12.0655 8.91368C13.6315 7.94467 15.415 7.38216 17.242 7.26816L17.248 7.26066C17.4685 7.24716 17.6905 7.23816 17.914 7.23816C23.8586 7.23816 28.7231 11.9437 28.9826 17.8253L27.8336 16.5367L26.8856 17.3827L29.5931 20.4143L32.2976 17.3827L31.3496 16.5367L30.2546 17.7652Z" fill="white"/>
</svg>
