<svg width="15" height="16" viewBox="0 0 15 16" fill="none" xmlns="http://www.w3.org/2000/svg">
<path fill-rule="evenodd" clip-rule="evenodd" d="M4.61831 12.4282L5.33844 11.0747L6.03984 11.4482L5.32095 12.8017L4.61831 12.4282ZM0.918213 12.8542L1.62023 13.2277L2.33912 11.8743L1.63772 11.5008L0.918213 12.8542ZM5.52263 15.2241L6.22465 15.5976L6.94353 14.2435L6.24214 13.87L5.52263 15.2241ZM12.0941 14.2726L11.3739 15.6267L12.0766 16.0002L12.7955 14.6461L12.0941 14.2726ZM8.89307 13.6904L8.19168 13.3169L8.91119 11.9634L9.61321 12.3363L8.89307 13.6904ZM12.3691 11.9387L11.6671 11.5658L10.9476 12.9193L11.649 13.2921L12.3691 11.9387ZM3.47871 15.5369L2.77607 15.1634L3.4962 13.8093L4.1976 14.1835L3.47871 15.5369Z" fill="#5AD1FB"/>
<mask id="mask0_1607_3334" style="mask-type:alpha" maskUnits="userSpaceOnUse" x="0" y="0" width="15" height="11">
<path fill-rule="evenodd" clip-rule="evenodd" d="M0 0H14.9892V10.4472H0V0Z" fill="white"/>
</mask>
<g mask="url(#mask0_1607_3334)">
<path fill-rule="evenodd" clip-rule="evenodd" d="M11.356 3.1797C11.2198 3.1797 11.0856 3.18845 10.9532 3.20344C10.4216 1.35407 8.71968 0 6.69981 0C4.25398 0 2.27096 1.98239 2.27096 4.42885C2.27096 4.63371 2.2897 4.83295 2.31718 5.03031C1.0062 5.2283 -0.000610352 6.35566 -0.000610352 7.7216C-0.000610352 9.22744 1.22043 10.4472 2.72565 10.4472H11.356C13.3628 10.4472 14.9891 8.82022 14.9891 6.81347C14.9891 4.80671 13.3628 3.1797 11.356 3.1797" fill="#6782B3"/>
</g>
</svg>
