<svg width="64" height="64" viewBox="0 0 64 64" fill="none" xmlns="http://www.w3.org/2000/svg">
<path d="M63.375 24.65C61.6 10.6 49.375 0.0249939 34.9 0.0249939H29.05C14.575 0.0249939 2.35 10.6 0.575 24.65C0.275 26.3 0.125 28 0.125 29.675V35.4C0.125 51.025 13.1 63.75 29.075 63.75H34.925C50.875 63.75 63.875 51.025 63.875 35.4V29.675C63.825 28 63.675 26.325 63.375 24.65Z" fill="#60CC72"/>
<path opacity="0.25" d="M63.375 24.65C61.6 10.6 49.375 0.0249939 34.9 0.0249939H29.05C14.575 0.0249939 2.35 10.6 0.575 24.65C0.275 26.3 0.125 28 0.125 29.675V31.05C0.125 29.375 0.275 27.675 0.575 26.025C2.35 11.975 14.575 1.39999 29.05 1.39999H34.9C49.375 1.39999 61.6 11.975 63.375 26.025C63.675 27.675 63.825 29.375 63.825 31.05V29.675C63.825 28 63.675 26.325 63.375 24.65Z" fill="#41B85A"/>
<path opacity="0.3" d="M34.9001 62.375H29.0501C13.1001 62.375 0.100098 49.65 0.100098 34.025V35.4C0.100098 51.025 13.0751 63.75 29.0501 63.75H34.9001C50.8501 63.75 63.8501 51.025 63.8501 35.4V34.025C63.8251 49.675 50.8501 62.375 34.9001 62.375Z" fill="#43AF55"/>
<defs>
<filter id="filter0_d_1770_4095" x="11.428" y="17.6507" width="41.3667" height="32.4759" filterUnits="userSpaceOnUse" color-interpolation-filters="sRGB">
<feFlood flood-opacity="0" result="BackgroundImageFix"/>
<feColorMatrix in="SourceAlpha" type="matrix" values="0 0 0 0 0 0 0 0 0 0 0 0 0 0 0 0 0 0 127 0" result="hardAlpha"/>
<feOffset dy="2"/>
<feGaussianBlur stdDeviation="2"/>
<feColorMatrix type="matrix" values="0 0 0 0 0 0 0 0 0 0 0 0 0 0 0 0 0 0 0.5 0"/>
<feBlend mode="normal" in2="BackgroundImageFix" result="effect1_dropShadow_1770_4095"/>
<feBlend mode="normal" in="SourceGraphic" in2="effect1_dropShadow_1770_4095" result="shape"/>
</filter>
</defs>
<g filter="url(#filter0_d_1770_4095)">
<path d="M16.4749 33.2349L41.7874 20.0439L45.3801 26.7618L19.9043 41.5302L16.4749 33.2349Z" fill="white"/>
<path fill-rule="evenodd" clip-rule="evenodd" d="M19.1421 36.6618L17.1824 32.8813L16.5292 33.2349C15.5222 33.7516 15.1411 34.9755 15.6582 35.9819L19.3326 43.0261C19.8498 44.0324 21.0746 44.4132 22.0816 43.8964L47.6935 30.5423C48.7006 30.0255 49.0816 28.8016 48.5645 27.7953L44.8901 20.7511C44.373 19.7448 43.1482 19.364 42.1411 19.8808L41.4879 20.2343L43.4476 24.0148C43.7197 24.5044 43.502 25.1299 43.0121 25.3747C42.5222 25.6467 41.8962 25.4291 41.6512 24.9396L39.6915 21.1591L37.8679 22.111L38.875 24.0148C39.1472 24.5044 38.9294 25.1299 38.4395 25.3747C37.9496 25.6467 37.3236 25.4291 37.0786 24.9396L36.0716 23.0357L34.0847 24.0692L35.0917 25.9731C35.3639 26.4626 35.1462 27.0882 34.6562 27.333C34.1663 27.6049 33.5403 27.3874 33.2953 26.8978L32.2883 24.994L30.3014 26.0275L32.2611 29.808C32.5332 30.2975 32.3155 30.9231 31.8256 31.1679C31.3357 31.4126 30.7097 31.2222 30.4647 30.7327L28.505 26.9522L26.5726 27.9585L27.5796 29.8624C27.8518 30.3519 27.6341 30.9775 27.1441 31.2222C26.6542 31.4942 26.0282 31.2766 25.7832 30.7871L24.7762 28.8832L22.7893 29.9168L23.7964 31.8206C24.0685 32.3102 23.8508 32.9357 23.3609 33.1805C22.8709 33.4525 22.2449 33.2349 22 32.7453L20.9929 30.8415L19.0605 31.8478L21.0201 35.6283C21.2923 36.1179 21.0746 36.7434 20.5847 36.9882C20.0131 37.369 19.3871 37.1786 19.1421 36.6618Z" fill="#FC544C"/>
</g>
</svg>
