<svg width="23" height="19" viewBox="0 0 23 19" fill="none" xmlns="http://www.w3.org/2000/svg">
<path fill-rule="evenodd" clip-rule="evenodd" d="M4.51276 15.9257L5.34211 16.5277L6.67344 14.6936L5.84561 14.0913L4.51276 15.9257Z" fill="#5AC8FA"/>
<path fill-rule="evenodd" clip-rule="evenodd" d="M7.50409 18.2803L8.33268 18.8815L9.66534 17.0476L8.83732 16.4459L7.50409 18.2803Z" fill="#5AC8FA"/>
<path fill-rule="evenodd" clip-rule="evenodd" d="M12.14 17.1272L12.9684 17.7295L14.3008 15.8945L13.4728 15.2927L12.14 17.1272Z" fill="#5AC8FA"/>
<path fill-rule="evenodd" clip-rule="evenodd" d="M18.1566 14.1965L16.8237 16.0314L17.6523 16.6333L18.985 14.7988L18.1566 14.1965Z" fill="#5AC8FA"/>
<path fill-rule="evenodd" clip-rule="evenodd" d="M19.3816 2.98743C19.2619 2.98743 19.1441 2.99522 19.0273 3.00852C18.5595 1.38136 17.0627 0.190056 15.2854 0.190056C13.7409 0.190056 12.4065 1.08857 11.7761 2.39159C12.3009 2.89965 12.7292 3.51164 13.0176 4.20381C15.5066 4.26423 17.5128 6.30749 17.5128 8.81074C17.5128 9.00416 17.4995 9.19435 17.4761 9.3815H19.3816C21.1473 9.3815 22.5788 7.95004 22.5788 6.18437C22.5788 4.41889 21.1473 2.98743 19.3816 2.98743Z" fill="#6782B3"/>
<path fill-rule="evenodd" clip-rule="evenodd" d="M16.7304 9.07083C16.7361 8.98495 16.7401 8.89869 16.7401 8.81148C16.7401 8.81129 16.7401 8.81091 16.7401 8.81072C16.7401 6.82503 15.2305 5.1916 13.2967 4.99514C13.1677 4.98203 13.037 4.97538 12.9045 4.97538C12.7611 4.97538 12.6195 4.98469 12.4795 5.00046C12.1618 4.05445 11.6496 3.38546 11.4907 3.20515L11.4904 3.20477C10.635 2.23425 9.3863 1.61941 7.99056 1.61941C5.40884 1.61941 3.31599 3.71207 3.31599 6.29379C3.31599 6.51001 3.33556 6.72072 3.36463 6.92896C1.98086 7.13739 0.918945 8.32774 0.918945 9.76965C0.918945 11.3586 2.20734 12.6461 3.79536 12.6461H12.9045C14.9153 12.6461 16.5639 11.0979 16.726 9.12897C16.7275 9.10959 16.729 9.09021 16.7304 9.07083Z" fill="#6782B3"/>
</svg>
