<svg width="20" height="20" viewBox="0 0 20 20" fill="none" xmlns="http://www.w3.org/2000/svg">
<path fill-rule="evenodd" clip-rule="evenodd" d="M2.5 0H17.5C18.8807 0 20 1.11929 20 2.5V17.5C20 18.8807 18.8807 20 17.5 20H2.5C1.11929 20 0 18.8807 0 17.5V2.5C0 1.11929 1.11929 0 2.5 0ZM4.98625 5.89687L7.9725 8.88313L8.85625 7.99937L5.8575 5H7.5C7.84518 5 8.125 4.72018 8.125 4.375C8.125 4.02982 7.84518 3.75 7.5 3.75H4.3925C4.22483 3.74996 4.06429 3.81782 3.9475 3.93813C3.82687 4.04063 3.75 4.19 3.75 4.375V7.5C3.75 7.84518 4.02982 8.125 4.375 8.125C4.72018 8.125 5 7.84518 5 7.5L4.98625 5.89687ZM16.25 7.5C16.25 7.84518 15.9702 8.125 15.625 8.125C15.2798 8.125 15 7.84518 15 7.5L15.0138 5.89687L12.0275 8.88313L11.1438 7.99937L14.1425 5H12.5C12.1548 5 11.875 4.72018 11.875 4.375C11.875 4.02982 12.1548 3.75 12.5 3.75H15.6075C15.7819 3.75 15.9388 3.82188 16.0525 3.93812C16.1806 4.04667 16.2532 4.20709 16.25 4.375V7.5ZM16.25 15.625C16.25 15.8125 16.1731 15.9625 16.0525 16.0625C15.9394 16.175 15.7819 16.25 15.6075 16.25H12.5C12.155 16.25 11.875 15.9688 11.875 15.625C11.875 15.2812 12.155 15 12.5 15H14.1425L11.1438 12L12.0275 11.1187L15.0138 14.1062L15 12.5C15 12.1562 15.28 11.875 15.625 11.875C15.97 11.875 16.25 12.1562 16.25 12.5V15.625ZM7.5 15C7.845 15 8.125 15.2812 8.125 15.625C8.125 15.9688 7.845 16.25 7.5 16.25H4.3925C4.21812 16.25 4.06063 16.175 3.9475 16.0625C3.81845 15.9544 3.74574 15.7933 3.75 15.625V12.5C3.75 12.1562 4.03 11.875 4.375 11.875C4.72 11.875 5 12.1562 5 12.5L4.98625 14.1062L7.9725 11.1187L8.85625 12L5.8575 15H7.5Z" fill="#B2B4B7"/>
</svg>
